# xmcd
#
# Track frame offsets: 
#        150
#        17607
#        52464
#        96384
#        122068
#        157399
#        182226
#        210786
#        230339
#        266465
#        285551
#
# Disc length: 4057 seconds
#
# Revision: 0
# Processed by: cddbd v1.5.2PL0 Copyright (c) Steve Scherf et al.
# Submitted via: ExactAudioCopy v1.0b4
#
DISCID=9e0fd70b
DTITLE=The Crusaders With B.B. King And The royal Philharmonic Orchest
DTITLE=ra - Royal Jam - Live (DLP)
DYEAR=1982
DGENRE=Blues
TTITLE0=Overture (I' m So Glad I'm Standing Here Today)
TTITLE1=One Day I' ll Fly Away
TTITLE2=Fly With Wings Of Love
TTITLE3=Burning Up The Carnival
TTITLE4=The Last Call
TTITLE5=The Thrill Is Gone
TTITLE6=Better Nor Look Down
TTITLE7=Hold On
TTITLE8=Street Life
TTITLE9=I Just Can' t Leave Your Love Alone
TTITLE10=Never Make A Move Too Soon
EXTD=
EXTT0=
EXTT1=
EXTT2=
EXTT3=
EXTT4=
EXTT5=
EXTT6=
EXTT7=
EXTT8=
EXTT9=
EXTT10=
PLAYORDER=
